<svg xmlns="http://www.w3.org/2000/svg" width="12" height="12" viewBox="0 0 12 12">
    <path fill="#FFF" fill-rule="evenodd" d="M11.052 0c.523 0 .948.424.948.946v10.106a.948.948 0 0 1-.948.948H.948A.948.948 0 0 1 0 11.052V.946C0 .424.424 0 .948 0h10.104zm.316 11.052v-7.58a.316.316 0 0 0-.316-.315H.948a.316.316 0 0 0-.316.315v7.58c0 .174.142.316.316.316h10.104a.316.316 0 0 0 .316-.316zm-7.58-6V4.42h.634v.631h-.633zm1.896 0V4.42h.631v.631h-.631zm1.896 0V4.42h.631v.631H7.58zm1.894 0V4.42h.632v.631h-.632zM3.789 7.577v-.63h.633v.63h-.633zm1.895 0v-.63h.631v.63h-.631zm-3.789 0v-.63h.632v.63h-.632zm1.894 2.526v-.631h.633v.631h-.633zm1.895 0v-.631h.631v.631h-.631zm1.896 0v-.631h.631v.631H7.58zm-5.685 0v-.631h.632v.631h-.632zm7.579-2.526v-.63h.632v.63h-.632zm-1.58-1.263a.948.948 0 1 1 .001 1.896.948.948 0 0 1 0-1.896z"/>
</svg>
