<svg xmlns="http://www.w3.org/2000/svg" width="12" height="11" viewBox="0 0 12 11">
    <path fill="#FFF" fill-rule="evenodd" d="M9.463 9.064a3.651 3.651 0 0 0 1.284 1.9S8.674 11.31 7.2 9.878c-.388.065-.79.1-1.2.1-3.313 0-6-2.232-6-4.989C0 2.234 2.687 0 6 0c3.314 0 6 2.234 6 4.99 0 1.683-1.002 3.17-2.537 4.074zm.284-3.346a.77.77 0 0 0 .193-.459.772.772 0 0 0-.23-.625.757.757 0 0 0-.503-.232.81.81 0 0 0-.66.277.761.761 0 0 0-.19.517c0 .197.063.37.19.515a.817.817 0 0 0 .68.276.772.772 0 0 0 .52-.269zm-3.173 0a.771.771 0 0 0 .194-.458.777.777 0 0 0-.231-.626.755.755 0 0 0-.502-.232.813.813 0 0 0-.66.277.76.76 0 0 0-.19.517.77.77 0 0 0 .28.605.77.77 0 0 0 .458.188.776.776 0 0 0 .65-.272zm-3.126 0a.776.776 0 0 0 .193-.459.772.772 0 0 0-.231-.625.752.752 0 0 0-.5-.232.815.815 0 0 0-.662.277.76.76 0 0 0-.19.517c0 .24.093.441.28.605a.77.77 0 0 0 .46.188.78.78 0 0 0 .65-.27z"/>
</svg>
