<svg xmlns="http://www.w3.org/2000/svg" width="27" height="28" viewBox="0 0 27 28">
    <path fill="#FAFBFC" fill-rule="evenodd" d="M3.13 21.978c0-2.481 2.985-4.547 6.315-4.51.776.009 1.5.132 2.158.345 1.807 1.258 3.105 1.967 3.47 3.4.07.29.108.587.108.893 0 2.532-1.632 4.51-6.314 4.51-3.332 0-5.737-2.108-5.737-4.638zM4.996 6.34C4.611 3.406 6.11 1.16 8.345 1.226c2.234.068 4.36 2.42 4.746 5.356.385 2.934-1.114 5.258-3.35 5.19-2.235-.067-4.36-2.498-4.745-5.432zm7.098 7.08c0-.931.265-1.387 1.664-2.48 1.435-1.122 2.45-2.697 2.45-4.528 0-2.183-.971-4.308-2.796-5.01h2.75L18.106 0H9.427c-3.887 0-7.55 2.945-7.55 6.356 0 3.487 2.653 6.3 6.61 6.3.276 0 .542-.004.803-.024-.255.49-.441 1.045-.441 1.618 0 .97.522 1.757 1.183 2.397-.5 0-.982.015-1.504.015C3.71 16.662 0 19.727 0 22.91 0 26.04 4.067 28 8.884 28c5.492 0 8.527-3.115 8.527-6.248 0-2.51-.743-4.015-3.035-5.635-.785-.555-2.282-1.903-2.282-2.696zm11.53-1.392V8.653h-2.72v3.375h-3.377v2.718h3.377v3.375h2.72v-3.375H27v-2.718h-3.377z"/>
</svg>
