<svg xmlns="http://www.w3.org/2000/svg" width="27" height="20" viewBox="0 0 27 20">
    <path fill="#FAFBFC" fill-rule="evenodd" d="M2.591 6.165C1.97 5.767 1.381 5.22.83 4.525.276 3.827 0 3.181 0 2.584 0 1.847.208 1.231.625.74 1.042.246 1.637 0 2.411 0h22.178c.653 0 1.218.222 1.695.668.477.445.716.98.716 1.605 0 .748-.246 1.463-.738 2.144a6.965 6.965 0 0 1-1.838 1.748c-3.777 2.471-6.128 4.01-7.052 4.616-.1.066-.314.21-.64.433a31.03 31.03 0 0 1-.814.54c-.216.137-.477.291-.783.462-.306.17-.595.298-.866.383a2.52 2.52 0 0 1-.754.128h-.03a2.52 2.52 0 0 1-.754-.128 4.685 4.685 0 0 1-.866-.383c-.306-.17-.568-.325-.784-.462a31.347 31.347 0 0 1-.813-.54 71.77 71.77 0 0 0-.64-.433c-.914-.606-2.23-1.47-3.948-2.592a702.673 702.673 0 0 1-3.089-2.024zm22.902 1.52A8.19 8.19 0 0 0 27 6.449v11.278c0 .625-.236 1.16-.708 1.605a2.393 2.393 0 0 1-1.703.668H2.411c-.663 0-1.23-.222-1.703-.668-.472-.445-.708-.98-.708-1.605V6.449c.442.464.95.876 1.522 1.236 3.636 2.33 6.132 3.963 7.488 4.9.573.398 1.037.708 1.394.93.356.223.831.45 1.423.682.593.232 1.146.348 1.658.348h.03c.513 0 1.065-.116 1.658-.348.592-.232 1.067-.459 1.423-.681.357-.223.822-.533 1.394-.93 1.707-1.166 4.209-2.8 7.503-4.901z"/>
</svg>
