<svg xmlns="http://www.w3.org/2000/svg" width="26" height="22" viewBox="0 0 26 22">
    <g fill="none" fill-rule="evenodd">
        <path fill="#FEFEFE" d="M25.305 1.329l-3.959 19.766s-.553 1.37-2.076.712l-9.136-6.935-3.323-1.59-5.592-1.865s-.859-.301-.942-.959c-.083-.658.97-1.014.97-1.014L23.477.808s1.827-.795 1.827.521"/>
        <path fill="#D2E5F1" d="M9.431 20.873s-.266-.025-.599-1.067a1681.67 1681.67 0 0 1-2.02-6.524l13.427-8.444s.775-.466.747 0c0 0 .139.082-.276.466-.416.384-10.549 9.403-10.549 9.403"/>
        <path fill="#B5D0E4" d="M13.637 17.531l-3.614 3.263s-.283.212-.592.079l.692-6.06"/>
    </g>
</svg>
