<svg xmlns="http://www.w3.org/2000/svg" width="31" height="17" viewBox="0 0 31 17">
    <path fill="#FAFBFC" fill-rule="evenodd" d="M17.02 16.929s.56-.06.846-.356c.263-.27.254-.782.254-.782s-.035-2.39 1.119-2.742c1.137-.347 2.597 2.31 4.146 3.332 1.17.772 2.06.603 2.06.603l4.14-.055s2.165-.128 1.139-1.765c-.085-.134-.6-1.211-3.078-3.424-2.597-2.315-2.249-1.94.878-5.947 1.904-2.44 2.665-3.93 2.427-4.567C30.725.617 29.324.78 29.324.78l-4.66.028s-.346-.045-.602.102c-.25.144-.413.48-.413.48s-.737 1.888-1.72 3.494C19.852 8.27 19.022 8.45 18.683 8.24c-.79-.491-.593-1.97-.593-3.022 0-3.283.518-4.652-1.009-5.006-.506-.118-.879-.195-2.175-.208-1.664-.016-3.07.005-3.868.38-.53.25-.94.806-.69.838.308.04 1.005.18 1.375.665.478.625.461 2.027.461 2.027s.275 3.865-.641 4.345c-.628.329-1.49-.343-3.34-3.417C7.256 3.268 6.54 1.528 6.54 1.528s-.138-.325-.385-.5C5.856.817 5.44.751 5.44.751L1.011.78S.345.796.1 1.075c-.217.246-.017.758-.017.758s3.468 7.799 7.395 11.73c3.6 3.602 7.688 3.366 7.688 3.366h1.853z"/>
</svg>
